<svg xmlns="http://www.w3.org/2000/svg" viewBox="0 0 120 120" role="img" aria-labelledby="title desc">
  <title id="title">impressyourself butterfly mark</title>
  <desc id="desc">A symmetrical butterfly symbol representing organized spaces, smarter systems and transformation.</desc>
  <g fill="none" stroke="#B21F4A" stroke-width="6" stroke-linecap="round" stroke-linejoin="round">
    <path d="M56 56C45 31 24 20 17 28c-8 9 3 31 33 35-21 1-31 14-23 24 8 10 25-1 31-20"/>
    <path d="M64 56c11-25 32-36 39-28 8 9-3 31-33 35 21 1 31 14 23 24-8 10-25-1-31-20"/>
    <path d="M60 50v40"/>
    <path d="M57 49C52 35 45 27 37 22"/>
    <path d="M63 49c5-14 12-22 20-27"/>
  </g>
  <circle cx="60" cy="43" r="5" fill="#D9909F"/>
  <path d="M60 55c-5 12-5 25 0 36 5-11 5-24 0-36Z" fill="#D9909F" opacity=".9"/>
</svg>
